<svg id="a8d5a316-368b-4acb-b7de-adba2c582d8f" data-name="Layer 1" xmlns="http://www.w3.org/2000/svg" xmlns:xlink="http://www.w3.org/1999/xlink" width="865.76" height="682.89" viewBox="0 0 865.76 682.89"><defs><clipPath id="b18e9186-fc3f-4110-a6c0-2491201145bc"><path id="a8656cea-4916-49a8-8ee7-c385d363c206" data-name="SVGID" d="M646.16,601.51c-45.46,6.93-88.53,11.33-126.69,14.09-91.64,6.63-155,3.83-155,3.83-94.07,0-157.83-9-199.58-21.43-53.86-16.08-75.26-35-75.26-35-76.58-64-70-186.28-70-186.28,7.19-149,141.27-212.81,141.27-212.81s259.2-193.67,528.76-56.92c0,0,152.35,65.95,156.62,232C846.26,338.93,853.78,569.86,646.16,601.51Z" fill="none"/></clipPath></defs><path d="M646.16,601.51c-45.46,6.93-88.53,11.33-126.69,14.09-91.64,6.63-155,3.83-155,3.83-94.07,0-158.15-7.94-199.58-21.43-52-16.94-75.26-35-75.26-35-76.58-64-70-186.28-70-186.28,7.19-149,141.27-212.81,141.27-212.81s259.2-193.67,528.76-56.92c0,0,152.35,65.95,156.62,232C846.26,338.93,853.78,569.86,646.16,601.51Z" fill="#aec5e0"/><path d="M646.16,601.51c-45.46,6.93-88.53,11.33-126.69,14.09-91.64,6.63-155,3.83-155,3.83-94.07,0-157.85-8.91-199.58-21.43-53.65-16.08-75.26-35-75.26-35-76.58-64-70-186.28-70-186.28,7.19-149,141.27-212.81,141.27-212.81s259.2-193.67,528.76-56.92c0,0,152.35,65.95,156.62,232C846.26,338.93,853.78,569.86,646.16,601.51Z" fill="#fff" opacity="0.7"/><g clip-path="url(#b18e9186-fc3f-4110-a6c0-2491201145bc)"><rect x="615.25" y="438.92" width="166.73" height="33.04" fill="#2f2e41"/><rect x="226.09" y="168.9" width="638.49" height="285.89" fill="#aec5e0" opacity="0.22"/><path d="M498.33,457.86h-273V433.68s12.63-.35,28.92.08c3.53.09,7.24.22,11,.39,16.21.77,33.87,2.41,45.79,5.84,0,0,5.1-.35,13.24-.87l4.35-.25c25.77-1.55,73.2-4.08,95.73-3.19C424.42,435.68,497.85,432.31,498.33,457.86Z" fill="#2f2e41"/><path d="M498.33,457.86h-273V433.68s12.63-.35,28.92.08c3.53.09,7.24.22,11,.39,16.21.77,33.87,2.41,45.79,5.84,0,0,5.1-.35,13.24-.87l4.35-.25c25.77-1.55,73.2-4.08,95.73-3.19C424.42,435.68,497.85,432.31,498.33,457.86Z" opacity="0.3"/><path d="M669.47,325.39v14.86L700,337.1s-4.56-14-3.16-26.66Z" fill="#f9b499"/><path d="M669.47,325.39v14.86s20.17-4.11,24.11-19.41Z" fill="#f7a48b"/><path d="M205.39,146.31V478.2H887.45V146.31ZM856.49,454.8h-630V169.54H856.49Z" fill="#fff"/><path d="M650.9,294.55c.15-1.55.44-3.4.76-5.06-.18,1.19-.34,2.59-.46,4.14A7.87,7.87,0,0,0,650.9,294.55Z" fill="#2f2e41"/><path d="M669.47,335.62h-5.56a3.31,3.31,0,0,0-3.31,3.4l.09,3s-7.81,2.71-14.47,5.41a28.6,28.6,0,0,0-13.46,11.28c-4.8,7.6-11.67,19.63-12.55,27.5l-5,13.78L635,439l129.59-.12-37-91.6s-5.34-1.62-12.25-3.3c0,0-5.54-.59-6.36-6,0,0,.89-5.49-9.9-4.1Z" fill="#aec5e0"/><path d="M724.81,353.76a75.41,75.41,0,0,0-11.3,29.16s-8.55,57.24-28.79,56.64l55-.8Z" opacity="0.2"/><path d="M701.38,333.68v6.57l-13.44,5.6,10.86,1.57s-16.51,2.72-18.51,1.64c0,0,26,3.7,32.17-5.87,0,0-3.49-1.76-3.49-5.21C709,338,709.4,333.14,701.38,333.68Z" opacity="0.2"/><path d="M364.49,443.6h0s28.39-11.07,36.79-16.83a15.78,15.78,0,0,1,6.83-1.18s27.75,2.22,28.52-11.67v-7.48A5.45,5.45,0,0,1,438,402.8,28.46,28.46,0,0,1,447,396s7.75-4.71,3.36-5.63c0,0-5.42-1.45-11.87,3.53,0,0-9.7,7.18-17.29,6.33H421a9.29,9.29,0,0,1-2.21-.55s-1.8-1.05,2.2-2.35c0,0,7.6-4,6.31-7.23a1,1,0,0,0-1.19-.55c-1.72.53-6.34,1.87-9.62,1.81a7.11,7.11,0,0,0-2.55.42,14,14,0,0,0-4.1,2.35,6.16,6.16,0,0,0-2,3.57c-.5,2.79-2.18,9.23-7.26,10.09-.91.15-27.63,2-27.63,2a4,4,0,0,1,.33,2s-.1,1.49-.33,3.83c-.49,4.87-1.58,13.42-3.68,19.93a18.72,18.72,0,0,1-3.8,6.73A8.32,8.32,0,0,0,364.49,443.6Z" fill="#f9b499"/><path d="M378.45,409.35s-2.16,15.42,5.62,26.12l-21.82,9.25s7.57-3.92,10-23.06c0,0,1.51-9.31.75-11.93Z" fill="#f7a48b"/><path d="M323.17,288S315,301,316,311.53c0,0-21.73-11.94-22.44-25l11.14-16.46Z" fill="#f9b499"/><path d="M323.17,288a56,56,0,0,0-4.27,8.57s-13.66-7.52-11.48-23.88Z" fill="#f7a48b"/><ellipse cx="328.68" cy="256.94" rx="25.82" ry="35.15" fill="#f9b499"/><path d="M285.58,253.84c.08.41.18.81.28,1.24a24.09,24.09,0,0,0,5.62,11.41s7.38,8.3,6.81,13.14l6.45-9.53,13.18-11.85a7.12,7.12,0,0,0,.84-.41c2-1.15,6.57-4.87,2.08-13.33,0,0,10.4-2.76,10.19-11.64,0,0,9.29,4.52,16.75.45h0a15.32,15.32,0,0,0,6.72-8.06,26.47,26.47,0,0,0-1.82-18.6S352.26,210,351,210c0,0-2.7-9.51-8.75-9.51a3.87,3.87,0,0,1-.62,5.91s-5.2,3.81-8.33,1.7a8.68,8.68,0,0,0-6.24-4.86l-18.7,4s-23.56-.42-24.82,25C283.56,232.24,282.18,238.46,285.58,253.84Z" fill="#2f2e41"/><path d="M340,235s-6.84-1.15-9.08-7.18l.11,5.05S334.18,234.9,340,235Z" opacity="0.2"/><path d="M352.69,206.79c.07,1.68.43,17.89-11.47,16.48,0,0,10.35-6.08,8.82-15.83a13.51,13.51,0,0,1,1,2.59s.9.34,1.63-3.23C352.66,206.78,352.69,206.77,352.69,206.79Z" opacity="0.2"/><path d="M343,211.9a25.48,25.48,0,0,1-3.47,3.85,18.58,18.58,0,0,1-4.18,2.89,13.79,13.79,0,0,1-4.81,1.43,17.94,17.94,0,0,1-5.11-.21,12.89,12.89,0,0,0,5.16.86h.66c.22,0,.44-.07.66-.11.44-.08.88-.14,1.31-.25l1.27-.42a10.26,10.26,0,0,0,1.22-.54,15.64,15.64,0,0,0,4.27-3.16A16.61,16.61,0,0,0,343,211.9Z" opacity="0.2"/><path d="M285.58,253.84c.08.41.18.81.28,1.24a24.09,24.09,0,0,0,5.62,11.41s7.38,8.3,6.81,13.14l6.45-9.53,13.18-11.85s8.53-3.17,2.92-13.74c0,0-1.76,4.16-4.68-1.41a53.54,53.54,0,0,1-2-17.89l-12.1-8.7s-6.27,7.78-5.61,24.19C296.41,240.7,295.34,255.67,285.58,253.84Z" opacity="0.2"/><path d="M318.76,257.84a16.31,16.31,0,0,1,.59,3.79c6.95-3.7,4.15-16.45,4.15-16.45,5.34-.51,8.05-6,8.05-6,11.63,3.2,16-5.37,16.23-5.82-7.46,4.07-16.75-.45-16.75-.45.21,8.88-10.19,11.64-10.19,11.64C325.33,253,320.76,256.69,318.76,257.84Z" fill="#f7a48b"/><path d="M335.81,398l-7.12,40.86c-10.64.65-17.59,1.12-17.59,1.12-14.7-4.23-38.15-5.75-56.82-6.23-1.59-2.15-3.2-6.24-3.31-14,0,0-3.28-45.62.42-65.54a35.37,35.37,0,0,1,1-4.18s8.17-33.89,24.85-52.58h0c1-1.08,2-2.11,3-3.09,0,0,11.56-13.92,13.35-7.77v.06a4.18,4.18,0,0,0,0,.51.81.81,0,0,1,0,.16,17,17,0,0,0,2.45,6.64.62.62,0,0,0,.08.12,2.67,2.67,0,0,0,.22.36,33.28,33.28,0,0,0,4.21,5.4c.5.53,1.05,1.09,1.62,1.64.35.35.73.7,1.12,1,.16.15.34.32.53.47h0l.67.59a75,75,0,0,0,9.5,6.77c.64.41,1.3.79,2,1.19a6.84,6.84,0,0,1,6.56,4.5,10.37,10.37,0,0,1,.56,2.2l.46,2.13.06.32c0,.22.09.45.14.69l.09.37.34,1.65.17.77c2.09,9.77,6.34,29,9.08,36.76C333.5,360.92,337.59,369.24,335.81,398Z" fill="#aec5e0"/><path d="M277.25,297.44c4.11.37,10.77,3.49,17.79,7.48,13.95,7.92,29.38,19.24,29.38,19.24l-.17-.77-.35-1.65-.08-.38-.14-.68-.07-.31-.45-2.15a9.25,9.25,0,0,0-.56-2.18,7.25,7.25,0,0,0-6.55-4.51h0c-.69-.4-1.36-.79-2-1.18a72.21,72.21,0,0,1-9.49-6.78h0l-.67-.59h0l-.52-.47c-.39-.34-.77-.69-1.12-1.05-.58-.54-1.12-1.09-1.62-1.62-.35-.38-.67-.74-1-1.1a29.8,29.8,0,0,1-4.37-6.41c-.1-.2-.19-.41-.27-.6a14.94,14.94,0,0,1-1.33-4.42c0-.06,0-.11,0-.16,0-.25,0-.43,0-.51v-.07c-1.8-6.15-13.36,7.79-13.36,7.79C279.21,295.32,278.22,296.35,277.25,297.44Z" fill="#fff" opacity="0.2"/><path d="M251.38,354.19c6.43-1.94,11.26-15.42,11.26-15.42a46,46,0,0,1,8.54-16.32L284,311.53a26.77,26.77,0,0,1,11-6.61,28.37,28.37,0,0,1,9.5-1.35h0c-.24-.2-.48-.39-.7-.59h0a34.44,34.44,0,0,1-7.48-8.55,3.24,3.24,0,0,1-.21-.35l-.08-.13q-.48-.85-.84-1.62c-.1-.2-.19-.41-.27-.6a14.6,14.6,0,0,1-1.37-5.09v-.07c-1.8-6.15-13.36,7.79-13.36,7.79-1,1-2,2-3,3.09h0C260.56,316.12,252.39,350,252.39,350A36.45,36.45,0,0,0,251.38,354.19Z" opacity="0.2"/><path d="M282.55,389l11.4,24.6c5.17,11.94,16.92,17.56,16.92,17.56,2.83,1.19,6.33,3.55,9.82,5.67l.16.09c5.95,3.62,11.68,7.2,12.72,7.93l.09.06.06,0h0a8.64,8.64,0,0,0,1.6.39l.42.05a7,7,0,0,0,5.79-2.32l.28-.3a7.34,7.34,0,0,0,.51-.6c.23-.31.45-.61.64-.9a14.3,14.3,0,0,0,1.1-2.07,2.16,2.16,0,0,1,.09-.2l0-.08a16.17,16.17,0,0,1,3.57-8.92,27,27,0,0,0,2.37-10.74c1.61-7.71,4.75-11.27,4.95-11.49h0l-17.47-8.83a12.05,12.05,0,0,1-3.5-2.64c-2.67-2.9-7.7-9.2-9.45-17.14-.09-.4-.17-.8-.24-1.21-2-11.63-3.9-27.49-6.6-32.56Z" fill="#aec5e0"/><path d="M344,447.13a4.13,4.13,0,0,0,2.23,1.08c2.25-.46,4.79,1.36,4.79,1.36a17.17,17.17,0,0,0,4.06,2.89c5.87,2.13,8.08-5.63,8.08-5.63a13.69,13.69,0,0,1,1.34-3.22h0a8.32,8.32,0,0,1,1-1.42,18.72,18.72,0,0,0,3.8-6.73c2.1-6.51,3.19-15.06,3.68-19.93.23-2.34.33-3.83.33-3.83a4,4,0,0,0-.33-2c-1.87-4.28-10.75-5.8-10.75-5.8-4.2-1.67-7.18,3.82-7.18,3.82l-3.91,2-8.64,19.47.09,12.59C342.24,444.65,343.05,446.26,344,447.13Z" fill="#aec5e0"/><path d="M320.41,436.72c5.95,3.62,12.12,7.37,13.16,8.1l.09.06.06,0h0a8.64,8.64,0,0,0,1.6.39l.42.05a7,7,0,0,0,5.79-2.32l.28-.3a7.34,7.34,0,0,0,.51-.6,10.89,10.89,0,0,0,.64-.9,14.3,14.3,0,0,0,1.1-2.07,2.16,2.16,0,0,1,.09-.2l0-.08a16.17,16.17,0,0,1,3.57-8.92,27,27,0,0,0,2.37-10.74c1.61-7.71,4.75-11.27,4.95-11.49a9.09,9.09,0,0,0-2.28.91c-2.19,1.17-5.49,3.79-7.8,9.45a26.39,26.39,0,0,1-3.25,5.89C338.46,428.34,331,435.24,320.41,436.72Z" opacity="0.2"/><path d="M344,447.13h0a4.13,4.13,0,0,0,2.23,1.08c2.25-.46,4.79,1.36,4.79,1.36a17.17,17.17,0,0,0,4.06,2.89c5.87,2.13,8.08-5.63,8.08-5.63a11.47,11.47,0,0,1,2.37-4.65,18.63,18.63,0,0,0,3.8-6.73c2.1-6.51,3.19-15.05,3.68-19.93-.14,0-1.69,0-3.42,11.66,0,0-2.34,17.33-16.28,17.41C353.3,444.59,346.5,445.19,344,447.13Z" opacity="0.2"/><path d="M335.33,445.32c6.22.9,8.85-6.42,8.85-6.42a16.17,16.17,0,0,1,3.57-8.92,27,27,0,0,0,2.37-10.74c1.61-7.71,4.75-11.27,4.95-11.49a9.09,9.09,0,0,0-2.28.91c-1.19,1.16-2.63,3.67-3.79,9a56.8,56.8,0,0,1-1.54,7.43,11.91,11.91,0,0,1-3.09,5.26,10.43,10.43,0,0,0-2.8,5.73,13.71,13.71,0,0,1-2.75,5.95A14.18,14.18,0,0,1,335.33,445.32Z" opacity="0.2"/><path d="M324.34,439.12c-8.14.52-13.24.87-13.24.87-11.92-3.43-29.58-5.07-45.79-5.84,1.77-6.25.42-14.64.42-14.64l-5-29.69c.9-7.83,4.38,0,4.38,0,3.63,9.08,12.12,17.93,12.12,17.93,8.77,5.77,5.31-15,5.31-15,.17-6,5.2,7.42,5.2,7.42l7.69,16.39a33.8,33.8,0,0,0,13.3,13.33Z" opacity="0.2"/><path d="M259.53,368.3a57.76,57.76,0,0,0,2.35,11.42,68.93,68.93,0,0,0,4.36,10.82c.85,1.76,1.89,3.4,2.87,5.08l1.63,2.42c.28.4.54.81.83,1.2l.91,1.13a52.4,52.4,0,0,0,8.06,8.31l-2-2.08-1-1c-.33-.35-.62-.73-.93-1.09l-1.88-2.19c-.6-.75-1.15-1.54-1.72-2.31l-.86-1.16c-.28-.39-.53-.8-.8-1.2l-1.58-2.41c-.95-1.67-1.95-3.31-2.77-5a76.6,76.6,0,0,1-4.5-10.64l-.89-2.76c-.26-.93-.54-1.85-.79-2.79Q260,371.18,259.53,368.3Z" opacity="0.2"/><path d="M335.88,396.94a28.11,28.11,0,0,1-4.1-5.5,47.21,47.21,0,0,1-3-6.14,62.28,62.28,0,0,1-3.58-13.2c-.09-.56-.22-1.12-.28-1.68l-.22-1.74c-.16-1.15-.32-2.31-.52-3.46-.4-2.29-.82-4.59-1.37-6.86a66.13,66.13,0,0,0-1.93-6.73,25,25,0,0,0-3.05-6.27,29.69,29.69,0,0,1,2.28,6.52c.56,2.23,1,4.49,1.43,6.75.83,4.56,1.38,9.09,2,13.73a52.1,52.1,0,0,0,4,13.47A30.3,30.3,0,0,0,335.88,396.94Z" opacity="0.2"/><path d="M336.26,384.86s-5.72-4.81-9.93-23.93l-3.68-16.88v0a1.65,1.65,0,0,0-3.29,0,16.72,16.72,0,0,0,.33,3.38,16.51,16.51,0,0,0,.49,2l3.53,11.39a58.14,58.14,0,0,1,2,8.78c1.09,7.47,4.07,22.91,10.18,25.84Z" opacity="0.2"/><path d="M421,400.19a9.29,9.29,0,0,1-2.21-.55s-1.8-1.05,2.2-2.35c0,0,7.6-4,6.31-7.23a14.88,14.88,0,0,1-10.07,6.19,3.38,3.38,0,0,0-2,1C414.33,398.26,414.09,399.85,421,400.19Z" fill="#f7a48b"/><ellipse cx="307.27" cy="261.63" rx="12.08" ry="12.27" fill="#aec5e0"/><ellipse cx="307.18" cy="261.63" rx="7.67" ry="7.79" opacity="0.2"/><path d="M299.7,239.3a74.16,74.16,0,0,0,1.86,11.52,12,12,0,0,1,9.64-.78l.07,0,.49-4.29,2.14-19.27c2.85-20.63,14.78-22.73,14.78-22.73-7.39-5.38-14.9-1.66-17-.38a10.36,10.36,0,0,0-1,.66C299.68,212.78,298.77,228.51,299.7,239.3Z" fill="#aec5e0"/><path d="M328.68,203.77s-6.41-2.51-11.13,4.54a35.82,35.82,0,0,0-4.45,12.12,30.31,30.31,0,0,0-.52,5.94l.06,11.42,1.55-13.12S316.65,207.09,328.68,203.77Z" opacity="0.2"/><path d="M299.7,239.3a74.16,74.16,0,0,0,1.86,11.52,12,12,0,0,1,9.64-.78l.07,0,.49-4.29S305.67,240.35,299.7,239.3Z" opacity="0.2"/><path d="M328.23,441.43l-.33,1.92L304,429.88s-10.92-6.9-16.28-29.7l7.69,16.37s6.05,10.17,16.29,14.94Z" opacity="0.2"/><line x1="648.42" y1="354.5" x2="662.98" y2="354.5" fill="none" stroke="#ed1c24" stroke-miterlimit="10" stroke-width="0.5"/><rect x="639.29" y="381.93" width="2.73" height="52.21" fill="#2f2e41"/><path d="M633,432.24h15.41a4.7,4.7,0,0,1,4.7,4.7v2a0,0,0,0,1,0,0H628.25a0,0,0,0,1,0,0v-2A4.7,4.7,0,0,1,633,432.24Z" fill="#2f2e41"/><path d="M633,432.24h15.41a4.7,4.7,0,0,1,4.7,4.7v2a0,0,0,0,1,0,0H628.25a0,0,0,0,1,0,0v-2A4.7,4.7,0,0,1,633,432.24Z" opacity="0.3"/><path d="M629.7,374.78h7.86a0,0,0,0,1,0,0v15.68a0,0,0,0,1,0,0H629.7a4.5,4.5,0,0,1-4.5-4.5v-6.67A4.5,4.5,0,0,1,629.7,374.78Z" transform="translate(-85.63 558.52) rotate(-45)" fill="#2f2e41"/><path d="M634.79,357.74h31.77a0,0,0,0,1,0,0v15.68a0,0,0,0,1,0,0H634.79a4.5,4.5,0,0,1-4.5-4.5v-6.67A4.5,4.5,0,0,1,634.79,357.74Z" transform="translate(1365.43 165.59) rotate(135)" fill="#2f2e41"/><rect x="634.95" y="368.99" width="4.45" height="15.68" transform="translate(-79.84 560.92) rotate(-45)" fill="#2f2e41"/><rect x="634.95" y="368.99" width="4.45" height="15.68" transform="translate(-79.84 560.92) rotate(-45)" fill="#fff" opacity="0.2"/><g opacity="0.3"><polygon points="633.21 369.89 633.2 369.53 655.35 368.96 657 348.91 657.36 348.94 655.68 369.31 633.21 369.89"/><rect x="640.71" y="362.03" width="0.36" height="15.37"/><rect x="637.82" y="364.6" width="22.79" height="0.36" transform="translate(-9.73 17.88) rotate(-1.57)"/><rect x="643.59" y="358.74" width="21.84" height="0.36" transform="translate(-12.21 23.22) rotate(-2.01)"/><rect x="634.54" y="368.06" width="22.12" height="0.36" transform="translate(269.82 1009.49) rotate(-89.33)"/><polygon points="650.64 374.64 650.28 374.62 651.44 351.29 651.8 351.31 650.64 374.64"/><rect x="639.29" y="375.63" width="9.99" height="0.36"/></g><circle cx="641.3" cy="381.93" r="5.42" fill="#2f2e41"/><circle cx="641.3" cy="381.93" r="5.42" opacity="0.3"/><path d="M701.63,296.92c0,18.29-11.56,33.12-25.5,33.12s-25.24-14.83-25.24-33.12,11.3-33.11,25.24-33.11S701.63,278.63,701.63,296.92Z" fill="#f9b499"/><path d="M731.64,324.67c-3.91,1.18-5.46,4.89-5.29,9,0,.35-.4,1.11-.36,1.48l1.85,12.31s-6-1.44-12.51-3.41c-2.05-.62-4.16-.53-5.36-3.07a6.19,6.19,0,0,1-1-3s-.2-5.92-9.91-4.11c0,0-2.75-11.58-2.5-17.52a37.29,37.29,0,0,0,4.82-21.75h0l0-.13q-.09-1.44-.33-3l-.2-.08c-1.73-.59-14.24-5.61-21-24.7a.31.31,0,0,0-.6,0c-1,5.16-6,24.84-26.63,18.3l-.06.25c-.14.52-.46,1.84-.76,3.73,0,.16,0,.3-.08.45-.32,1.66-.61,3.51-.76,5.06a7.87,7.87,0,0,1,.3-.92c-.76,10.29.94,27.18,18.27,35.23v6.76h-5.56A3.31,3.31,0,0,0,660.6,339l.09,3s-3.64,1.16-7.11,2.7c-2.58,1.15-5.4,2.58-8.18,3.05A34.57,34.57,0,0,0,646.92,337c0-1.26,0-2.61-.16-4a43.88,43.88,0,0,0-2.34-10.73c-3-8.74-9.6-34,5.74-55.23,0,0,15.42-23.91,35.75-15,0,0,14.78-6.54,28.41,18.72a39.25,39.25,0,0,1,4.37,13.47c1.15,8.51,3.94,24,9.52,27.72C728.21,311.85,741.93,321.57,731.64,324.67Z" fill="#2f2e41"/><path d="M701.39,294.61h0a.32.32,0,0,0,0-.13Z" fill="#2f2e41"/><path d="M716.59,298.69s-3.92,13.88,12.56,27.13l4.28-1.88S719.31,315.85,716.59,298.69Z" opacity="0.2"/><path d="M669.47,259.57s30.39-3.86,31.32,30.2c0,0,3.06-1.48,5.11,0C705.9,289.77,706.39,252.49,669.47,259.57Z" fill="#aec5e0"/><path d="M699.07,333.88s-2.57-9.54-2.51-17.51a51.63,51.63,0,0,0,3.42-8l7.9-11.41s-2.52,35.36,19.72,50.34c0,0,0,.08,0,.06a84.38,84.38,0,0,0-12.25-3.3,6.94,6.94,0,0,1-6.33-5.31S709.68,332.31,699.07,333.88Z" opacity="0.2"/><path d="M701.39,294.61h-2.58c-10.16-.91-18.88-22.34-18.88-22.34-2,17.07-21,16.71-21,16.71-5-.41-6.74,2.33-7.41,4a10.77,10.77,0,0,0-.33,1.52c.15-1.55.2-3.4.52-5.06,0-.15.05-.29.08-.45.33-1.71.64-3.16.76-3.73l.06-.25c20.61,6.54,25.67-13.14,26.63-18.3a.31.31,0,0,1,.6,0c6.8,19.09,19.31,24.11,21,24.7l.53,3.05Z" fill="#f7a48b"/><rect x="698.8" y="288.98" width="9.08" height="23.28" rx="3.57" fill="#aec5e0"/><path d="M724.81,379s.19-12.72-5.51-20.38c-.15-.19-.3-.36-.46-.54-1.62-1.76-11-12.15-6.38-11.77a18.62,18.62,0,0,1,12.35,6.4,31,31,0,0,0,1.16-7.9c0-.27,0-.54,0-.82,0-4.63-2.14-16.48,2-18.07a1.55,1.55,0,0,1,2,1.34l.38,3.3s-.82-4.32.46-6.77a2.1,2.1,0,0,1,3.81.24,18.24,18.24,0,0,1,.86,6.53s0-6.18,2.6-5.62a2.14,2.14,0,0,1,1.58,2.05l.54,11.29s.17-10.11,3.13-7.68a3.72,3.72,0,0,1,1.25,2.88,193.36,193.36,0,0,1-1.13,20.19,24.39,24.39,0,0,1-.47,2.82c-.93,4.17-3.63,16.91-2.78,20.38,0,0-9.39,1.9-13,1.67Z" fill="#f9b499"/><path d="M730.34,330.54a27.58,27.58,0,0,1,.64,6.17,26.9,26.9,0,0,1-.64,6.17,26.34,26.34,0,0,1-.63-6.17A27,27,0,0,1,730.34,330.54Z" fill="#f7a48b"/><path d="M735.47,330.54a30.53,30.53,0,0,1,0,12.34,26.35,26.35,0,0,1-.64-6.17A27,27,0,0,1,735.47,330.54Z" fill="#f7a48b"/><path d="M727.62,355.14a7.11,7.11,0,0,1,1.89,1.6,11,11,0,0,1,1.4,2,8.52,8.52,0,0,1,1.06,4.8c-.43-.73-.75-1.45-1.11-2.14s-.7-1.39-1.07-2.07C729.08,358,728.32,356.65,727.62,355.14Z" fill="#f7a48b"/><path d="M741.1,376.64c8.16-1.9,11.43,11.18,11.43,11.18,19.6,9,17.42,40.28,17.42,40.28.82,13.34-1.15,10.82-1.15,10.82H727.62C712.51,421.71,722,389.7,722,389.7c-3-3.45-2.21-6.28-.73-8.22a7.71,7.71,0,0,1,5.92-3A75.2,75.2,0,0,0,741.1,376.64Z" fill="#aec5e0"/><path d="M722,389.7h13.43a2.94,2.94,0,0,1,1.84,1.4,2.56,2.56,0,0,0,3.15,1.1l12.07-4.38s4.67,2.37,6.74,4.67c0,0-13.91,6.48-23.8,3.21,0,0-8.38-5-14.36-2A27.68,27.68,0,0,1,722,389.7Z" fill="#fff" opacity="0.2"/><polygon points="205.39 363.58 415.53 146.31 449.05 146.31 205.39 402.68 205.39 363.58" fill="#fff" opacity="0.27"/><polygon points="205.39 461.56 205.39 478.2 292.83 478.2 589.36 146.31 507.52 146.31 205.39 461.56" fill="#fff" opacity="0.27"/><polygon points="658.54 478.2 838.15 291.63 838.15 256.29 622.9 478.2 658.54 478.2" fill="#fff" opacity="0.27"/><polygon points="432.87 478.2 751.49 146.31 823.14 146.31 541.74 477.92 432.87 478.2" fill="#fff" opacity="0.27"/></g><path d="M519.47,615.6c-91.64,6.63-155,3.83-155,3.83-94.07,0-157.85-8.91-199.58-21.43,37.42-12.46,96.12-24.92,168.85-24.92C436,573.08,518.93,592.08,519.47,615.6Z" fill="#bcbec0"/><rect x="323.77" y="396.19" width="2.79" height="208.9" fill="#2f2e41"/><path d="M212.47,306.94s9,3.92,16.27,20.4c0,0,1.5-14.62-14.59-27.65C214.15,299.69,217.37,304.46,212.47,306.94Z" fill="#2f2e41"/><path d="M212.47,306.94s9,3.92,16.27,20.4c0,0,1.5-14.62-14.59-27.65C214.15,299.69,217.37,304.46,212.47,306.94Z" opacity="0.2"/><path d="M204,397.48s-10.67,13.46-13.63,26.27L175,407.47s-4.47-4.78-8.1-8c0,0,9.62-8.4,9.44-16.53l.43-14.45Z" fill="#f9b499"/><path d="M184.32,386.94s4.8,14.94,12.73,21c0,0,4-7.37,7-10.46Z" fill="#f7a48b"/><path d="M256.06,556.32a3.31,3.31,0,0,1-1.61,3.53L232.93,572.1l-1.13.61c-7.82,4.08-14.11,3.75-14.11,3.75a30.49,30.49,0,0,1-7.35,5.46h0c-12,6.75-30,10.5-30,10.5l1.45,9.81C120.86,589.64,83,557,83,557c10.62-28,3.48-60.15,3.48-60.15C86.18,473.72,90,460.38,90,460.38l11.75-31.83c14.75-28.1,42.59-29.09,42.59-29.09h22.52q6.09,5.71,12.4,12.23,5.91,6.12,11.14,12.06a4.27,4.27,0,0,1,3-.13,4.16,4.16,0,0,1,1.79,1.21A3,3,0,0,1,195,429l-7.12,7c9,24.33,16.1,102.73,16.1,102.73l29-9.24c9.94-8.15,16.56-5.27,16.56-5.27Z" fill="#aec5e0"/><path d="M137,407.94s22,14.25,30.87,30.28c0,0,5.94,13.26,11.68,6.14l8.41-8.39,4.22-4.13A48.22,48.22,0,0,0,179,440.91a2.84,2.84,0,0,1-2.87.75c-1.26-.39-2.85-1.5-4-4.39C172.12,437.27,148.83,402.21,137,407.94Z" fill="#fff" opacity="0.2"/><path d="M160.68,493.16s-6.17-11,0-9.26c0,0,14.33,12.05,22.12,29.59,0,0,9.23,18.76,20.29,15.75l.78,7.84s-5.12-6.23-13.8,14.67l-3.72-1.06-1.42-13.29-6.55-5.67S168.33,499.58,160.68,493.16Z" opacity="0.2"/><path d="M181.74,602.85c-63.94-15.25-96.15-43.44-96.15-43.44s11.66,2.37,14.41-22.73c0,0-4.34-56.2,6.61-53,0,0,7.21,2,9.06,25.57a38.76,38.76,0,0,1-.23,8.34c-1.23,9-3.28,34.07,9.88,45.75,0,0,43.09,37.35,55,29.06Z" opacity="0.2"/><path d="M109.55,539.65c1.68,2.94,3.44,5.84,5.36,8.62a80.39,80.39,0,0,0,6.13,8c.55.63,1.14,1.23,1.71,1.84l1.8,1.75,3.84,3.29,7.75,6.59,0,0c2.93,2,5.77,4.14,8.59,6.31a90.58,90.58,0,0,1,8.14,6.93,43.09,43.09,0,0,0,8,6.85,36.32,36.32,0,0,0,4.57,2.63,29.27,29.27,0,0,0,5,1.76,28.37,28.37,0,0,1-9.9-3.85,44.15,44.15,0,0,1-8.34-6.68,162.21,162.21,0,0,0-16.76-12.91l0,0,0,0-7.67-6.67-3.84-3.37a41.55,41.55,0,0,1-3.5-3.77,78,78,0,0,1-5.91-8.33A94.35,94.35,0,0,1,109.55,539.65Z" opacity="0.2"/><path d="M231.8,572.71c-7.82,4.08-14.11,3.75-14.11,3.75a30.49,30.49,0,0,1-7.35,5.46c2.62-2.35,4.13-6.33,4.95-9.24a8.77,8.77,0,0,1,3.87-5.1,9.92,9.92,0,0,0,4.57-11.22,29.23,29.23,0,0,1-2.13-7.78,1.75,1.75,0,0,1,2.59-1.66c5.58,2.91,4.39,14.87,4.39,14.87C226.35,569.25,231.8,572.71,231.8,572.71Z" opacity="0.2"/><path d="M331.63,492.82a104.71,104.71,0,0,1-9.8,7.82l-9,5.48a1.9,1.9,0,0,0-.84,2.18c.79,2.71,1.75,9.15-3.52,17a6.16,6.16,0,0,1-1.63,1.63,26.69,26.69,0,0,1-22.74,3.4L255.78,554.9l-6.15-30.71s17-6.48,19-17.26c0,0,.5-3.14,4-8,0,0,3-9.89,11.1-9.89,0,0,10.66-1.69,16-2.46a1.55,1.55,0,0,1,1.77,1.8c-.41,2-2.51,5.23-10.7,7.75,0,0-3.28,1.32-.26,2.8a37.59,37.59,0,0,0,14.77-.35h0c.82-.15,1.66-.36,2.54-.58a9.67,9.67,0,0,0,3.5-1.78c3.47-2.8,12.72-9.49,19.41-7.37A2.35,2.35,0,0,1,331.63,492.82Z" fill="#f9b499"/><path d="M305.32,498.62c-8.45,4.21-19.75,2-19.75,2-6.72-3.58,8.9-8.41,8.9-8.41,6.7-2.72,5.27-5.61,5.27-5.61a1.55,1.55,0,0,1,1.77,1.8c-.41,2-2.51,5.23-10.7,7.75,0,0-3.28,1.32-.26,2.8A37.59,37.59,0,0,0,305.32,498.62Z" fill="#f7a48b"/><path d="M249.63,524.19l6.15,30.71,12.75-11s-13.39-8.12-15.2-21.35Z" fill="#f7a48b"/><ellipse cx="204.02" cy="352.18" rx="29.05" ry="47.27" fill="#f9b499"/><path d="M212.49,306.93h0a7.41,7.41,0,0,1-.8.32,13.33,13.33,0,0,0-6.18,4c-8.15,9.92-5.6,29.63-5.6,29.63a24,24,0,0,1-3.24,12.39h0c-6.38,11-19.91,15.22-19.91,15.22l-.44,14.46c-.26,8.84-9.44,16.53-9.44,16.53H144.34c-31.94,3.69-42.59,29.09-42.59,29.09-12.31-18.13-5.88-34.61-1.4-42.31a26.25,26.25,0,0,1,5.1-6.07c4.43-4,7.52-11.7,7.52-11.7l.35-1.1,8-24.86C131.67,302.22,161,290.14,161,290.14c27.33-12.1,37.13,5.46,37.13,5.46,8.54-4.85,14.11,1.42,16,4.08a6,6,0,0,1,1.06,2.38A4.2,4.2,0,0,1,212.49,306.93Z" fill="#2f2e41"/><path d="M204.2,325.62c.57,6,1.8,26.37-7.54,27.63a24,24,0,0,0,3.24-12.39s-2.55-19.71,5.6-29.63a13.33,13.33,0,0,1,6.18-4,7.41,7.41,0,0,0,.8-.32h0l1.78,1s-7.79,5-9.8,13A13.9,13.9,0,0,0,204.2,325.62Z" fill="#f7a48b"/><path d="M166.86,399.46l10.34,10.12s4.27-25.64,3.26-33.49c0,0,15.15-8.21,13.71-19.29a41.43,41.43,0,0,1-17.43,11.67l-.44,14.46S176.81,390.79,166.86,399.46Z" fill="#f7a48b"/><path d="M115.33,400.55a36.56,36.56,0,0,0,4.56.07c.76,0,1.52-.08,2.27-.13s1.51-.16,2.25-.26a39.34,39.34,0,0,0,8.72-2.24,36,36,0,0,0,8-4.13,48.26,48.26,0,0,0,6.95-5.86c-.46.6-.93,1.21-1.42,1.81a19.22,19.22,0,0,1-1.5,1.75,32.76,32.76,0,0,1-3.46,3.09,28.9,28.9,0,0,1-3.86,2.59c-.67.39-1.4.69-2.09,1a16.89,16.89,0,0,1-2.15.91,31.79,31.79,0,0,1-9.06,2A28.9,28.9,0,0,1,115.33,400.55Z" opacity="0.2"/><path d="M152.77,368.47s9.76,14.43,23.49,15.52l.48-15.52S167.12,372.94,152.77,368.47Z" opacity="0.2"/><path d="M198.16,295.6s-13.77,7.41-9.29,26.92c0,0,6.71,18.85-8.3,30.73,0,0,15.81,0,16.71-17.34a30.31,30.31,0,0,0-1.71-11.4C193.51,318.53,189.92,304.41,198.16,295.6Z" opacity="0.2"/><path d="M124.06,373.92s-6.42,11.22-20.58,7.72c5.46-3.16,9.49-13.17,9.49-13.17l.35-1.1S115.37,374.36,124.06,373.92Z" opacity="0.2"/><path d="M156.59,486.38s12.4,19.31,17.53,35.08c0,0,1.6,12.8,6,16.13a9,9,0,0,1,3.64,5.47,17.41,17.41,0,0,1,.29,2.85s-1.06,11.87,5.5,7.79c0,0,3.19-1.59,4.78-8,0,0,2.2-7.77,5.85-8.5,0,0-5.06-1.18-8.51,8,0,0-4.07,7.61-3.19,1.95,0,0,.71-10.63-4.6-13.82s-4.79-6.91-7.44-14.71C176.43,518.62,166.15,492.05,156.59,486.38Z" fill="#aec5e0"/><path d="M156.59,486.38s12.4,19.31,17.53,35.08c0,0,1.6,12.8,6,16.13a9,9,0,0,1,3.64,5.47,17.41,17.41,0,0,1,.29,2.85s-1.06,11.87,5.5,7.79c0,0,3.19-1.59,4.78-8,0,0,2.2-7.77,5.85-8.5,0,0-5.06-1.18-8.51,8,0,0-4.07,7.61-3.19,1.95,0,0,.71-10.63-4.6-13.82s-4.79-6.91-7.44-14.71C176.43,518.62,166.15,492.05,156.59,486.38Z" opacity="0.3"/><rect x="310.46" y="356.8" width="27.76" height="68.03" rx="4.23" fill="#2f2e41"/><path d="M335.74,430.31h-22.8a8,8,0,0,1-8-8V391.57a1.27,1.27,0,0,1,2.54,0V422.3a5.47,5.47,0,0,0,5.47,5.47h22.8a5.47,5.47,0,0,0,5.47-5.47V391.58a1.27,1.27,0,1,1,2.54,0V422.3A8,8,0,0,1,335.74,430.31Z" fill="#2f2e41"/><rect x="263.97" y="604.23" width="109.09" height="2.81" fill="#2f2e41"/><line x1="403" y1="458.73" x2="428.58" y2="458.73" fill="none" stroke="#ed1c24" stroke-miterlimit="10" stroke-width="0.5"/><rect x="386.97" y="506.93" width="4.79" height="91.73" fill="#2f2e41"/><path d="M372.94,595.3h32.84a5.37,5.37,0,0,1,5.37,5.37V607a0,0,0,0,1,0,0H367.57a0,0,0,0,1,0,0v-6.36A5.37,5.37,0,0,1,372.94,595.3Z" fill="#2f2e41"/><path d="M372.94,595.3h32.84a5.37,5.37,0,0,1,5.37,5.37V607a0,0,0,0,1,0,0H367.57a0,0,0,0,1,0,0v-6.36A5.37,5.37,0,0,1,372.94,595.3Z" opacity="0.3"/><path d="M366.7,494.37h17.22a0,0,0,0,1,0,0v27.54a0,0,0,0,1,0,0H366.7a4.5,4.5,0,0,1-4.5-4.5V498.87a4.5,4.5,0,0,1,4.5-4.5Z" transform="translate(-250.04 412.63) rotate(-45)" fill="#2f2e41"/><path d="M375.64,464.43h59.21a0,0,0,0,1,0,0V492a0,0,0,0,1,0,0H375.64a4.5,4.5,0,0,1-4.5-4.5V468.94A4.5,4.5,0,0,1,375.64,464.43Z" transform="translate(1026.1 531.38) rotate(135)" fill="#2f2e41"/><rect x="379.33" y="484.2" width="7.82" height="27.54" transform="translate(-239.87 416.84) rotate(-45)" fill="#2f2e41"/><rect x="379.33" y="484.2" width="7.82" height="27.54" transform="translate(-239.87 416.84) rotate(-45)" fill="#fff" opacity="0.2"/><g opacity="0.3"><polygon points="376.27 485.78 376.26 485.15 415.18 484.14 418.07 448.91 418.71 448.96 415.76 484.76 376.27 485.78"/><rect x="389.45" y="471.96" width="0.64" height="27"/><rect x="384.38" y="476.48" width="40.05" height="0.64" transform="translate(-12.88 11.23) rotate(-1.57)"/><rect x="394.51" y="466.19" width="38.37" height="0.64" transform="translate(-16.14 14.82) rotate(-2.01)"/><rect x="378.62" y="482.56" width="38.86" height="0.64" transform="translate(-89.47 875.24) rotate(-89.33)"/><polygon points="406.9 494.11 406.27 494.08 408.3 453.09 408.94 453.13 406.9 494.11"/><rect x="386.97" y="495.85" width="17.55" height="0.64"/></g><circle cx="390.5" cy="506.93" r="9.52" fill="#2f2e41"/><circle cx="390.5" cy="506.93" r="9.52" opacity="0.3"/><path d="M474.69,610.93h0s-43.39-16.64-56.22-25.32A24.56,24.56,0,0,0,408,583.84s-42.41,3.35-43.59-17.56V555a8.16,8.16,0,0,0-2.13-5.51,43.58,43.58,0,0,0-13.65-10.28s-11.85-7.08-5.14-8.47c0,0,8.29-2.17,18.15,5.32,0,0,14.82,10.8,26.42,9.52h.18a14.29,14.29,0,0,0,3.38-.83s2.76-1.57-3.35-3.54c0,0-11.63-6.08-9.65-10.88a1.48,1.48,0,0,1,1.82-.82c2.63.8,9.68,2.8,14.7,2.73a10.53,10.53,0,0,1,3.9.62,21.4,21.4,0,0,1,6.26,3.54,9.27,9.27,0,0,1,3,5.37c.76,4.2,3.34,13.9,11.1,15.18,1.39.23,42.24,3,42.24,3a5.86,5.86,0,0,0-.51,2.95s.15,2.25.51,5.77c.75,7.33,2.41,20.19,5.61,30a28,28,0,0,0,5.81,10.12A12.51,12.51,0,0,1,474.69,610.93Z" fill="#f9b499"/><path d="M453.36,559.4s3.3,23.19-8.59,39.3l33.36,13.92s-11.58-5.9-15.3-34.7c0,0-2.3-14-1.13-18Z" fill="#f7a48b"/><path d="M537.86,376.8s12.53,19.6,10.89,35.39c0,0,33.22-18,34.31-37.57l-17-24.77Z" fill="#f9b499"/><path d="M537.86,376.8a83.93,83.93,0,0,1,6.53,12.9s20.86-11.32,17.54-35.94Z" fill="#f7a48b"/><ellipse cx="529.43" cy="330.04" rx="39.47" ry="52.89" fill="#f9b499"/><path d="M595.31,325.38c-.13.61-.27,1.22-.42,1.86,0,0-1.59,9.86-8.59,17.18,0,0-11.28,12.49-10.42,19.77L566,349.84,545.88,332a10.69,10.69,0,0,1-1.28-.63c-3.06-1.73-10.05-7.33-3.18-20.06,0,0-15.9-4.14-15.59-17.51,0,0-14.19,6.8-25.6.68v0c-4-2.16-7.68-5.91-10.26-12.12,0,0-4.55-14,2.78-28,0,0,.63,5.09,2.54,5.09,0,0,4.13-14.32,13.37-14.32,0,0-4.46,4.78.95,8.91,0,0,7.95,5.73,12.73,2.56a13.21,13.21,0,0,1,9.54-7.32l28.58,6s36-.63,37.93,37.55C598.39,292.87,600.5,302.23,595.31,325.38Z" fill="#2f2e41"/><path d="M512.13,297s10.45-1.73,13.87-10.81l-.16,7.6S521,296.88,512.13,297Z" opacity="0.2"/><path d="M492.73,254.58c-.1,2.52-.65,26.91,17.53,24.8,0,0-15.82-9.15-13.47-23.83a19.4,19.4,0,0,0-1.5,3.91s-1.38.51-2.5-4.87C492.78,254.55,492.73,254.54,492.73,254.58Z" opacity="0.2"/><path d="M507.52,262.27a38.51,38.51,0,0,0,5.31,5.79,28.6,28.6,0,0,0,6.39,4.34,20.84,20.84,0,0,0,7.36,2.16,28.15,28.15,0,0,0,7.81-.32,19.91,19.91,0,0,1-7.89,1.3l-1,0c-.34,0-.67-.11-1-.16-.67-.13-1.35-.21-2-.38l-2-.62c-.64-.21-1.24-.55-1.87-.82a24,24,0,0,1-6.51-4.76A24.85,24.85,0,0,1,507.52,262.27Z" opacity="0.2"/><path d="M595.31,325.38c-.13.61-.27,1.22-.42,1.86,0,0-1.59,9.86-8.59,17.18,0,0-11.28,12.49-10.42,19.77L566,349.84,545.88,332s-13-4.78-4.46-20.69c0,0,2.68,6.26,7.16-2.11a80,80,0,0,0,3.11-26.92l18.5-13.1s9.58,11.71,8.56,36.4C578.75,305.6,580.39,328.13,595.31,325.38Z" opacity="0.2"/><path d="M544.6,331.39a23.84,23.84,0,0,0-.9,5.71c-10.62-5.57-6.34-24.75-6.34-24.75-8.17-.77-12.31-9.09-12.31-9.09-17.78,4.81-24.48-8.08-24.82-8.76,11.41,6.12,25.6-.68,25.6-.68-.31,13.37,15.59,17.51,15.59,17.51C534.55,324.06,541.54,329.66,544.6,331.39Z" fill="#f7a48b"/><path d="M648.21,575c-.35,24-9.51,27.62-9.51,27.62l-10.36,1.49q-26.08,3.69-54,6.59-22,2.26-43,3.77-.63-3.57-1.27-7.14l-11.52-65c-2.72-43.29,3.54-55.82,3.54-55.82,4.18-11.72,10.68-40.6,13.88-55.32l.25-1.15.53-2.49.13-.56c.08-.36.15-.7.22-1l.1-.47.69-3.23a14,14,0,0,1,.86-3.29,10.46,10.46,0,0,1,10-6.78h0c1.06-.6,2.08-1.18,3.07-1.78a114.44,114.44,0,0,0,14.49-10.2l1.05-.88s0,0,0,0c.28-.23.55-.47.8-.7.6-.52,1.17-1,1.72-1.57.87-.83,1.7-1.65,2.46-2.45a51.63,51.63,0,0,0,6.46-8.13l.33-.54.11-.19a24.87,24.87,0,0,0,3.74-10c0-.08,0-.16,0-.24a6.91,6.91,0,0,0,0-.77v-.1c2.74-9.25,20.42,11.71,20.42,11.71q2.34,2.19,4.56,4.65h0c25.5,28.12,38,79.11,38,79.11a55,55,0,0,1,1.54,6.3C653.22,506.36,648.21,575,648.21,575Z" fill="#aec5e0"/><path d="M608,391c-6.28.56-16.46,5.26-27.19,11.26-21.32,11.92-44.9,28.95-44.9,28.95l.25-1.15.53-2.49.13-.56.22-1,.1-.47.69-3.23a14,14,0,0,1,.86-3.29c2.71-6.68,9.62-6.78,10-6.78h0c1.06-.6,2.08-1.18,3.07-1.78a108.24,108.24,0,0,0,14.49-10.2h0l1-.88s0,0,0,0c.28-.23.55-.47.8-.7.6-.52,1.17-1,1.72-1.57.87-.83,1.7-1.65,2.46-2.45.54-.56,1-1.11,1.51-1.65a44.76,44.76,0,0,0,6.67-9.65c.16-.3.3-.61.42-.9a23.15,23.15,0,0,0,2-6.65c0-.08,0-.16,0-.24a6.91,6.91,0,0,0,0-.77v-.1c2.74-9.25,20.42,11.71,20.42,11.71Q605.82,388.52,608,391Z" fill="#fff" opacity="0.2"/><path d="M647.58,476.39c-9.82-2.92-17.21-23.22-17.21-23.22-4.76-15.53-13.06-24.54-13.06-24.54l-19.59-16.44a41,41,0,0,0-16.87-9.95,44,44,0,0,0-14.52-2h0l1.07-.88s0,0,0,0a51.67,51.67,0,0,0,11.44-12.85c.12-.18.22-.36.33-.54l.11-.19c.48-.85.92-1.66,1.28-2.44.16-.3.3-.61.42-.9a22.46,22.46,0,0,0,2.1-7.66v-.1c2.74-9.25,20.42,11.71,20.42,11.71q2.34,2.19,4.56,4.65h0c25.5,28.12,38,79.11,38,79.11A55,55,0,0,1,647.58,476.39Z" opacity="0.2"/><path d="M599.94,528.72l-17.42,37c-7.91,18-25.87,26.41-25.87,26.41-4.32,1.79-9.67,5.35-15,8.54l-.24.14c-9.1,5.45-17.86,10.82-19.45,11.93l-.14.09-.09.06h0a12,12,0,0,1-2.44.59l-.65.07a10.8,10.8,0,0,1-8.84-3.49,4.44,4.44,0,0,1-.43-.44c-.27-.3-.54-.6-.78-.91-.36-.47-.69-.92-1-1.36a22.51,22.51,0,0,1-1.69-3.11,1.87,1.87,0,0,0-.13-.3l0-.12a24.19,24.19,0,0,0-5.45-13.43c-4-9.44-3.62-16.16-3.62-16.16-2.47-11.6-7.27-16.95-7.58-17.28h0l26.71-13.28a18.81,18.81,0,0,0,5.35-4c4.07-4.37,11.76-13.84,14.44-25.79.14-.59.26-1.2.37-1.81,3.09-17.51,6-41.37,10.09-49Z" fill="#aec5e0"/><path d="M506,616.25a6.42,6.42,0,0,1-3.42,1.61c-3.43-.68-7.32,2.06-7.32,2.06a26.26,26.26,0,0,1-6.21,4.35c-9,3.2-12.34-8.48-12.34-8.48a20.07,20.07,0,0,0-2.06-4.85h0a12.51,12.51,0,0,0-1.57-2.14,28,28,0,0,1-5.81-10.12c-3.2-9.8-4.86-22.66-5.61-30-.36-3.52-.51-5.77-.51-5.77a5.86,5.86,0,0,1,.51-2.95c2.85-6.44,16.42-8.72,16.42-8.72,6.42-2.52,11,5.74,11,5.74l6,3,13.2,29.3-.12,18.94C508.71,612.51,507.47,614.93,506,616.25Z" fill="#aec5e0"/><path d="M542.07,600.58C533,606,523.55,611.66,522,612.77l-.14.09-.09.06h0a12,12,0,0,1-2.44.59l-.65.07a10.8,10.8,0,0,1-8.84-3.49,4.44,4.44,0,0,1-.43-.44c-.27-.3-.54-.6-.78-.91-.37-.47-.7-.92-1-1.36a22.51,22.51,0,0,1-1.69-3.11,1.87,1.87,0,0,0-.13-.3l0-.12a24.19,24.19,0,0,0-5.45-13.43c-4-9.44-3.62-16.16-3.62-16.16-2.47-11.6-7.27-16.95-7.58-17.28a13.71,13.71,0,0,1,3.5,1.36c3.34,1.77,8.38,5.71,11.91,14.23a39.34,39.34,0,0,0,5,8.86C514.48,588,525.88,598.36,542.07,600.58Z" opacity="0.2"/><path d="M506,616.24h0a6.42,6.42,0,0,1-3.42,1.61c-3.43-.68-7.32,2.06-7.32,2.06a26.26,26.26,0,0,1-6.21,4.35c-9,3.2-12.34-8.48-12.34-8.48a17.49,17.49,0,0,0-3.63-7,27.91,27.91,0,0,1-5.81-10.12c-3.2-9.8-4.87-22.65-5.61-30,.2,0,2.58-.08,5.22,17.55,0,0,3.58,26.07,24.89,26.2C491.81,612.43,502.2,613.33,506,616.24Z" opacity="0.2"/><path d="M519.27,613.52c-9.51,1.36-13.53-9.66-13.53-9.66a24.19,24.19,0,0,0-5.45-13.43c-4-9.44-3.62-16.16-3.62-16.16-2.47-11.6-7.27-16.95-7.58-17.28a13.71,13.71,0,0,1,3.5,1.36c1.81,1.74,4,5.53,5.79,13.62a82.92,82.92,0,0,0,2.35,11.18,17.81,17.81,0,0,0,4.73,7.92,15.66,15.66,0,0,1,4.27,8.62,20.48,20.48,0,0,0,4.2,8.95A21.81,21.81,0,0,0,519.27,613.52Z" opacity="0.2"/><path d="M628.34,604.12c-15.78,2.3-32.17,4.4-49.14,6.2q-24.68,2.63-47.88,4.16l-1.21-6.81,29.8-17.38a51.08,51.08,0,0,0,20.33-20.06L592,545.58s7.68-20.2,7.93-11.17c0,0-5.28,31.26,8.13,22.57,0,0,13-13.32,18.52-27,0,0,5.32-11.81,6.7,0l-7.63,44.65S623.13,594.89,628.34,604.12Z" opacity="0.2"/><path d="M635.13,497.62a85.88,85.88,0,0,1-3.59,17.19,103.28,103.28,0,0,1-6.67,16.28c-1.3,2.64-2.89,5.12-4.39,7.64L618,542.37c-.42.6-.82,1.22-1.26,1.81l-1.39,1.71A81,81,0,0,1,603,558.39l3.08-3.13,1.54-1.55c.5-.53,1-1.11,1.43-1.65l2.86-3.3c.92-1.13,1.76-2.31,2.64-3.47l1.31-1.74c.42-.59.81-1.21,1.22-1.81l2.41-3.62c1.45-2.52,3-5,4.24-7.61a114.37,114.37,0,0,0,6.88-16l1.36-4.14c.4-1.4.82-2.8,1.2-4.21C634,503.35,634.61,500.5,635.13,497.62Z" opacity="0.2"/><path d="M518.43,540.72a41.45,41.45,0,0,0,6.26-8.28,69.87,69.87,0,0,0,4.62-9.24,93.29,93.29,0,0,0,5.47-19.86c.14-.84.34-1.69.43-2.53l.34-2.62c.25-1.74.49-3.47.79-5.2.62-3.46,1.26-6.91,2.09-10.32a99.39,99.39,0,0,1,3-10.13,37.67,37.67,0,0,1,4.66-9.43,43.8,43.8,0,0,0-3.47,9.8c-.87,3.35-1.56,6.75-2.2,10.16-1.26,6.86-2.1,13.68-3.08,20.66A77.67,77.67,0,0,1,531.12,524C528.05,530.34,524,536.43,518.43,540.72Z" opacity="0.2"/><path d="M517.84,522.54s8.75-7.24,15.18-36l5.63-25.4v0c.09-3.22,5-3.2,5,0a28,28,0,0,1-1.25,8L537,486.27a86.33,86.33,0,0,0-3,13.21c-1.67,11.24-6.22,34.48-15.56,38.89Z" opacity="0.2"/><path d="M388.27,545.61a14.29,14.29,0,0,0,3.38-.83s2.76-1.57-3.35-3.54c0,0-11.63-6.08-9.65-10.88A22.77,22.77,0,0,0,394,539.68a5.2,5.2,0,0,1,3,1.49C398.51,542.71,398.88,545.1,388.27,545.61Z" fill="#f7a48b"/><circle cx="562.15" cy="337.1" r="18.46" fill="#aec5e0"/><circle cx="562.29" cy="337.1" r="11.72" opacity="0.2"/><path d="M573.72,303.5a108.16,108.16,0,0,1-2.84,17.33,18.75,18.75,0,0,0-14.73-1.18l-.11,0-.74-6.45-3.28-29c-4.36-31-22.59-34.2-22.59-34.2,11.3-8.1,22.77-2.49,26-.58a17.6,17.6,0,0,1,1.48,1C573.76,263.58,575.15,287.27,573.72,303.5Z" fill="#aec5e0"/><path d="M529.43,250s9.79-3.77,17,6.85c0,0,4.5,6.59,6.8,18.23A44.65,44.65,0,0,1,554,284l-.1,17.19-2.35-19.74S547.82,255,529.43,250Z" opacity="0.2"/><path d="M573.72,303.5a108.16,108.16,0,0,1-2.84,17.33,18.75,18.75,0,0,0-14.73-1.18l-.11,0-.74-6.45S564.6,305.08,573.72,303.5Z" opacity="0.2"/><path d="M530.11,607.67l.51,2.88,36.5-20.26S583.8,579.9,592,545.59l-11.77,24.64s-9.24,15.3-24.88,22.49Z" opacity="0.2"/></svg>